<svg width="16" height="16" viewBox="0 0 16 16" fill="none" xmlns="http://www.w3.org/2000/svg">
<path d="M12 11.4998C11.6 11.4998 11.224 11.3423 10.9405 11.0568L8.941 9.05777C8.4985 8.59877 8.214 7.64327 8.947 6.93527L10.941 4.94227C11.5035 4.37277 12.4935 4.37077 13.0605 4.94427C13.343 5.22327 13.501 5.59977 13.501 6.00077C13.501 6.17377 13.4715 6.34177 13.4155 6.50027H13.5C14.327 6.50027 15 7.17277 15 7.99977C15 8.82677 14.327 9.49927 13.5 9.49927H13.4155C13.472 9.65727 13.501 9.82577 13.501 9.99877C13.501 10.3998 13.343 10.7763 13.056 11.0598C12.7775 11.3418 12.4005 11.4998 12 11.4998ZM12 5.49977C11.8685 5.49977 11.7445 5.55227 11.6505 5.64727L9.6485 7.64877C9.313 7.97277 9.6515 8.35377 9.655 8.35727L11.6485 10.3498C11.649 10.3503 11.65 10.3508 11.6505 10.3518C11.8385 10.5423 12.161 10.5423 12.349 10.3518C12.4485 10.2538 12.501 10.1298 12.501 9.99827C12.501 9.86727 12.449 9.74327 12.3535 9.64977L12.056 9.35277C11.913 9.20977 11.87 8.99477 11.9475 8.80777C12.025 8.62077 12.207 8.49877 12.4095 8.49877H13.5C13.7755 8.49877 14 8.27477 14 7.99927C14 7.72377 13.7755 7.49977 13.5 7.49977H12.41C12.2075 7.49977 12.0255 7.37777 11.948 7.19077C11.8705 7.00427 11.9135 6.78877 12.0565 6.64577L12.3515 6.35077C12.449 6.25477 12.501 6.13077 12.501 5.99977C12.501 5.86877 12.449 5.74477 12.3535 5.65077C12.2555 5.55227 12.1315 5.49977 12 5.49977ZM4 11.4998C3.5995 11.4998 3.2235 11.3423 2.94 11.0558C2.6565 10.7718 2.5 10.3963 2.5 9.99927C2.5 9.82677 2.5295 9.65827 2.586 9.49927H2.5C1.673 9.49927 1 8.82677 1 7.99977C1 7.17277 1.673 6.50027 2.5 6.50027H2.5845C2.528 6.34227 2.499 6.17377 2.499 6.00077C2.499 5.59977 2.657 5.22327 2.944 4.93977C3.502 4.37527 4.4945 4.37077 5.061 4.94427L6.973 6.86077C7.292 7.13227 7.4975 7.58677 7.4985 8.02727C7.499 8.45777 7.313 8.85127 6.973 9.13877L5.0595 11.0573C4.7775 11.3418 4.4005 11.4998 4 11.4998ZM2.5 7.50027C2.2245 7.50027 2 7.72427 2 7.99977C2 8.27527 2.2245 8.49927 2.5 8.49927H3.59C3.792 8.49927 3.9745 8.62127 4.052 8.80827C4.1295 8.99527 4.0865 9.21027 3.9435 9.35327L3.6485 9.64827C3.553 9.74327 3.5 9.86827 3.5 9.99927C3.5 10.1298 3.553 10.2548 3.6485 10.3503C3.649 10.3508 3.65 10.3518 3.6505 10.3523C3.8385 10.5428 4.161 10.5428 4.349 10.3523L6.2805 8.41627C6.2925 8.40477 6.305 8.39327 6.318 8.38227C6.439 8.28327 6.498 8.16777 6.4975 8.02927C6.497 7.85577 6.4055 7.68827 6.3195 7.61877C6.306 7.60777 6.2925 7.59627 6.28 7.58377L4.35 5.64927C4.1585 5.45527 3.8375 5.45727 3.6495 5.64777C3.55 5.74577 3.4975 5.86977 3.4975 6.00127C3.4975 6.13227 3.5495 6.25627 3.645 6.34977L3.9425 6.64677C4.0855 6.78977 4.1285 7.00477 4.051 7.19177C3.9735 7.37877 3.791 7.50077 3.589 7.50077H2.5V7.50027Z" fill="url(#paint0_linear_158_9471)"/>
<defs>
<linearGradient id="paint0_linear_158_9471" x1="8" y1="4.28527" x2="8" y2="11.3643" gradientUnits="userSpaceOnUse">
<stop stop-color="#66CCFF"/>
<stop offset="1" stop-color="#6666FF"/>
</linearGradient>
</defs>
</svg>
