<svg width="42" height="42" viewBox="0 0 42 42" fill="none" xmlns="http://www.w3.org/2000/svg">
<path d="M1.84394 12.5828C3.1975 6.05707 7.3623 2.42247 13.8586 1.32448C18.6609 0.512985 23.465 0.502708 28.2593 1.34727C34.9482 2.5255 38.9693 6.37207 40.2503 12.9965C41.2399 18.116 41.2555 23.2901 40.2347 28.4048C38.8653 34.8853 34.5931 38.8856 28.1208 39.9796C23.3185 40.791 18.5144 40.8013 13.7201 39.9568C7.03121 38.7785 2.99224 34.7399 1.71133 28.1156C0.671158 22.9623 0.771243 17.7554 1.84394 12.5827V12.5828Z" fill="#163C6D"/>
<path d="M1.84394 12.5828C3.1975 6.05707 7.3623 2.42247 13.8586 1.32448C18.6609 0.512985 23.465 0.502708 28.2593 1.34727C34.9482 2.5255 38.9693 6.37207 40.2503 12.9965C41.2399 18.116 41.2555 23.2901 40.2347 28.4048C38.8653 34.8853 34.5931 38.8856 28.1208 39.9796C23.3185 40.791 18.5144 40.8013 13.7201 39.9568C7.03121 38.7785 2.99224 34.7399 1.71133 28.1156C0.671158 22.9623 0.771243 17.7554 1.84394 12.5827V12.5828Z" fill="#163C6D"/>
<path fill-rule="evenodd" clip-rule="evenodd" d="M31.4403 17.8424H33.1381L33.1278 27.0489C33.1252 29.261 31.3312 31.053 29.1191 31.053H13.7913V29.3551H28.8946C30.3005 29.3551 31.4403 28.2154 31.4403 26.8095V17.8424ZM18.4243 12.1304C18.2172 11.9527 17.9533 11.8551 17.6804 11.8551H10.7829V31.0381H8.93604V11.2299C8.93604 10.5552 9.48293 10.0083 10.1575 10.0083H18.2525C18.5889 10.0083 18.9142 10.1284 19.1699 10.347L22.0611 12.8178C22.3013 13.0231 22.6069 13.1359 22.9228 13.136H32.885V14.9828H22.2725C21.9581 14.9828 21.654 14.8711 21.4143 14.6678L18.4243 12.1305V12.1304ZM18.185 20.6921H19.6594V23.9359C19.6594 23.9622 19.6664 23.988 19.6795 24.0108C19.6927 24.0336 19.7116 24.0525 19.7344 24.0656C19.7572 24.0788 19.783 24.0857 19.8093 24.0857C19.8356 24.0857 19.8615 24.0788 19.8843 24.0656L23.6085 21.9155C23.757 21.8297 23.757 21.6154 23.6085 21.5296L17.9263 18.249L18.6635 16.972L24.6864 20.4601C24.9088 20.5889 25.0934 20.774 25.2216 20.9967C25.3499 21.2194 25.4174 21.4719 25.4172 21.7289C25.417 21.9859 25.3493 22.2383 25.2207 22.4609C25.0922 22.6834 24.9073 22.8682 24.6848 22.9968L19.8532 25.7862C19.7266 25.8593 19.5819 25.895 19.4359 25.8891L19.331 25.8849C18.6981 25.8849 18.185 25.3718 18.185 24.7389V20.6921V20.6921Z" fill="white"/>
</svg>
