<svg width="24" height="24" viewBox="0 0 24 24" fill="none" xmlns="http://www.w3.org/2000/svg">
<g clip-path="url(#clip0_154_9463)">
<path fill-rule="evenodd" clip-rule="evenodd" d="M12.75 15C12.75 14.793 12.582 14.625 12.375 14.625H11.625C11.418 14.625 11.25 14.793 11.25 15V15.75C11.25 15.957 11.418 16.125 11.625 16.125H12.375C12.582 16.125 12.75 15.957 12.75 15.75V15Z" fill="#163C6D"/>
<path fill-rule="evenodd" clip-rule="evenodd" d="M12.75 8.25001C12.75 8.04282 12.582 7.87463 12.375 7.87463H11.625C11.418 7.87463 11.25 8.04282 11.25 8.25001V13.125C11.25 13.3322 11.418 13.5004 11.625 13.5004H12.375C12.582 13.5004 12.75 13.3322 12.75 13.125V8.25001Z" fill="#163C6D"/>
<path fill-rule="evenodd" clip-rule="evenodd" d="M17.8336 17.8335C14.6141 21.053 9.3861 21.053 6.16657 17.8335C2.94704 14.614 2.94705 9.38598 6.16658 6.16645C9.3861 2.94692 14.6141 2.94692 17.8336 6.16645C20.3716 8.7044 20.9093 12.4903 19.4459 15.5568C19.2674 15.9307 19.4262 16.3784 19.7994 16.5569C20.173 16.7351 20.6214 16.5763 20.7996 16.2027C22.5286 12.5791 21.8938 8.10492 18.8945 5.10558C15.0895 1.30057 8.91071 1.30056 5.1057 5.10557C1.30069 8.91059 1.30069 15.0894 5.1057 18.8944C8.91072 22.6994 15.0895 22.6994 18.8945 18.8944C19.1872 18.6016 19.1872 18.1262 18.8945 17.8335C18.6018 17.5408 18.1264 17.5408 17.8336 17.8335Z" fill="#163C6D"/>
</g>
<defs>
<clipPath id="clip0_154_9463">
<rect width="24" height="24" fill="white"/>
</clipPath>
</defs>
</svg>
